<svg id="Capa_1" data-name="Capa 1" xmlns="http://www.w3.org/2000/svg" viewBox="0 0 512 512"><defs><style>.cls-1{fill:#fafeff;}</style></defs><path class="cls-1" d="M256,360.1A104.1,104.1,0,1,1,360.1,256,104.22,104.22,0,0,1,256,360.1Z" transform="translate(0 0)"/><path class="cls-1" d="M256,116.07a15,15,0,0,1-15-15V15a15,15,0,0,1,30,0v86.07A15,15,0,0,1,256,116.07Z" transform="translate(0 0)"/><path class="cls-1" d="M146.45,161.45a15,15,0,0,1-10.61-4.39L75,96.19A15,15,0,0,1,96.19,75l60.86,60.86a15,15,0,0,1-10.6,25.61Z" transform="translate(0 0)"/><path class="cls-1" d="M101.07,271H15a15,15,0,0,1,0-30h86.07a15,15,0,0,1,0,30Z" transform="translate(0 0)"/><path class="cls-1" d="M85.59,441.41A15,15,0,0,1,75,415.81l60.86-60.87a15,15,0,0,1,21.22,21.22L96.19,437a14.93,14.93,0,0,1-10.6,4.39Z" transform="translate(0 0)"/><path class="cls-1" d="M256,512a15,15,0,0,1-15-15V410.93a15,15,0,0,1,30,0V497A15,15,0,0,1,256,512Z" transform="translate(0 0)"/><path class="cls-1" d="M426.41,441.41a14.91,14.91,0,0,1-10.6-4.39L355,376.16A15,15,0,0,1,376.16,355L437,415.81a15,15,0,0,1-10.61,25.6Z" transform="translate(0 0)"/><path class="cls-1" d="M497,271H410.93a15,15,0,0,1,0-30H497a15,15,0,0,1,0,30Z" transform="translate(0 0)"/><path class="cls-1" d="M365.55,161.45A15,15,0,0,1,355,135.84L415.81,75A15,15,0,0,1,437,96.19l-60.86,60.87a15,15,0,0,1-10.61,4.39Z" transform="translate(0 0)"/></svg>